<svg width="45" height="45" viewBox="0 0 45 45" fill="none" xmlns="http://www.w3.org/2000/svg">
<rect x="0.5" y="0.5" width="44" height="44" stroke="#323D50"/>
<g clip-path="url(#clip0_590_1348)">
<path d="M22.5 10C15.5965 10 10 15.5965 10 22.5C10 28.362 14.036 33.281 19.4805 34.632V26.32H16.903V22.5H19.4805V20.854C19.4805 16.5995 21.406 14.6275 25.583 14.6275C26.375 14.6275 27.7415 14.783 28.3005 14.938V18.4005C28.0055 18.3695 27.493 18.354 26.8565 18.354C24.807 18.354 24.015 19.1305 24.015 21.149V22.5H28.098L27.3965 26.32H24.015V34.9085C30.2045 34.161 35.0005 28.891 35.0005 22.5C35 15.5965 29.4035 10 22.5 10Z" fill="#323D50"/>
</g>
<defs>
<clipPath id="clip0_590_1348">
<rect width="25" height="25" fill="white" transform="translate(10 10)"/>
</clipPath>
</defs>
</svg>
