<svg width="45" height="45" viewBox="0 0 45 45" fill="none" xmlns="http://www.w3.org/2000/svg">
<rect x="0.5" y="0.5" width="44" height="44" stroke="#323D50"/>
<g clip-path="url(#clip0_590_1354)">
<path d="M22.5 12.251C25.8398 12.251 26.2354 12.2656 27.5488 12.3242C28.7695 12.3779 29.4287 12.583 29.8682 12.7539C30.4492 12.9785 30.8691 13.252 31.3037 13.6865C31.7432 14.126 32.0117 14.541 32.2363 15.1221C32.4072 15.5615 32.6123 16.2256 32.666 17.4414C32.7246 18.7598 32.7393 19.1553 32.7393 22.4902C32.7393 25.8301 32.7246 26.2256 32.666 27.5391C32.6123 28.7598 32.4072 29.4189 32.2363 29.8584C32.0117 30.4395 31.7383 30.8594 31.3037 31.2939C30.8643 31.7334 30.4492 32.002 29.8682 32.2266C29.4287 32.3975 28.7646 32.6025 27.5488 32.6563C26.2305 32.7148 25.835 32.7295 22.5 32.7295C19.1602 32.7295 18.7646 32.7148 17.4512 32.6563C16.2305 32.6025 15.5713 32.3975 15.1318 32.2266C14.5508 32.002 14.1309 31.7285 13.6963 31.2939C13.2568 30.8545 12.9883 30.4395 12.7637 29.8584C12.5928 29.4189 12.3877 28.7549 12.334 27.5391C12.2754 26.2207 12.2607 25.8252 12.2607 22.4902C12.2607 19.1504 12.2754 18.7549 12.334 17.4414C12.3877 16.2207 12.5928 15.5615 12.7637 15.1221C12.9883 14.541 13.2617 14.1211 13.6963 13.6865C14.1357 13.2471 14.5508 12.9785 15.1318 12.7539C15.5713 12.583 16.2354 12.3779 17.4512 12.3242C18.7646 12.2656 19.1602 12.251 22.5 12.251ZM22.5 10C19.1064 10 18.6816 10.0146 17.3486 10.0732C16.0205 10.1318 15.1074 10.3467 14.3164 10.6543C13.4912 10.9766 12.793 11.4014 12.0996 12.0996C11.4014 12.793 10.9766 13.4912 10.6543 14.3115C10.3467 15.1074 10.1318 16.0156 10.0732 17.3438C10.0146 18.6816 10 19.1064 10 22.5C10 25.8936 10.0146 26.3184 10.0732 27.6514C10.1318 28.9795 10.3467 29.8926 10.6543 30.6836C10.9766 31.5088 11.4014 32.207 12.0996 32.9004C12.793 33.5938 13.4912 34.0234 14.3115 34.3408C15.1074 34.6484 16.0156 34.8633 17.3438 34.9219C18.6768 34.9805 19.1016 34.9951 22.4951 34.9951C25.8887 34.9951 26.3135 34.9805 27.6465 34.9219C28.9746 34.8633 29.8877 34.6484 30.6787 34.3408C31.499 34.0234 32.1973 33.5938 32.8906 32.9004C33.584 32.207 34.0137 31.5088 34.3311 30.6885C34.6387 29.8926 34.8535 28.9844 34.9121 27.6563C34.9707 26.3232 34.9854 25.8984 34.9854 22.5049C34.9854 19.1113 34.9707 18.6865 34.9121 17.3535C34.8535 16.0254 34.6387 15.1123 34.3311 14.3213C34.0234 13.4912 33.5986 12.793 32.9004 12.0996C32.207 11.4063 31.5088 10.9766 30.6885 10.6592C29.8926 10.3516 28.9844 10.1367 27.6562 10.0781C26.3184 10.0146 25.8936 10 22.5 10Z" fill="#323D50"/>
<path d="M22.5 16.0791C18.9551 16.0791 16.0791 18.9551 16.0791 22.5C16.0791 26.0449 18.9551 28.9209 22.5 28.9209C26.0449 28.9209 28.9209 26.0449 28.9209 22.5C28.9209 18.9551 26.0449 16.0791 22.5 16.0791ZM22.5 26.665C20.2002 26.665 18.335 24.7998 18.335 22.5C18.335 20.2002 20.2002 18.335 22.5 18.335C24.7998 18.335 26.665 20.2002 26.665 22.5C26.665 24.7998 24.7998 26.665 22.5 26.665Z" fill="#323D50"/>
<path d="M30.6738 15.8252C30.6738 16.6553 30 17.3242 29.1748 17.3242C28.3447 17.3242 27.6758 16.6504 27.6758 15.8252C27.6758 14.9951 28.3496 14.3262 29.1748 14.3262C30 14.3262 30.6738 15 30.6738 15.8252Z" fill="#323D50"/>
</g>
<defs>
<clipPath id="clip0_590_1354">
<rect width="25" height="25" fill="white" transform="translate(10 10)"/>
</clipPath>
</defs>
</svg>
