<svg width="45" height="45" viewBox="0 0 45 45" fill="none" xmlns="http://www.w3.org/2000/svg">
<rect x="0.5" y="0.5" width="44" height="44" stroke="#323D50"/>
<g clip-path="url(#clip0_590_1352)">
<rect width="25" height="25" transform="translate(10 10)" fill="#323D50" fill-opacity="0.79"/>
<path d="M33.1494 10H11.8457C10.8252 10 10 10.8057 10 11.8018V33.1934C10 34.1895 10.8252 35 11.8457 35H33.1494C34.1699 35 35 34.1895 35 33.1982V11.8018C35 10.8057 34.1699 10 33.1494 10ZM17.417 31.3037H13.7061V19.3701H17.417V31.3037ZM15.5615 17.7441C14.3701 17.7441 13.4082 16.7822 13.4082 15.5957C13.4082 14.4092 14.3701 13.4473 15.5615 13.4473C16.748 13.4473 17.71 14.4092 17.71 15.5957C17.71 16.7773 16.748 17.7441 15.5615 17.7441ZM31.3037 31.3037H27.5977V25.5029C27.5977 24.1211 27.5732 22.3389 25.6689 22.3389C23.7402 22.3389 23.4473 23.8477 23.4473 25.4053V31.3037H19.7461V19.3701H23.3008V21.001H23.3496C23.8428 20.0635 25.0537 19.0723 26.8555 19.0723C30.6104 19.0723 31.3037 21.543 31.3037 24.7559V31.3037Z" fill="white"/>
</g>
<defs>
<clipPath id="clip0_590_1352">
<rect width="25" height="25" fill="white" transform="translate(10 10)"/>
</clipPath>
</defs>
</svg>
