<svg width="19" height="19" viewBox="0 0 19 19" fill="none" xmlns="http://www.w3.org/2000/svg">
<path d="M17.3928 14.5109C17.3928 14.7959 17.3295 15.0888 17.1949 15.3738C17.0603 15.6588 16.8862 15.928 16.6566 16.1813C16.2687 16.6088 15.8412 16.9176 15.3583 17.1155C14.8833 17.3134 14.3687 17.4163 13.8145 17.4163C13.007 17.4163 12.1441 17.2263 11.2337 16.8384C10.3233 16.4505 9.41284 15.928 8.51034 15.2709C7.59992 14.6059 6.737 13.8697 5.91367 13.0543C5.09825 12.2309 4.362 11.368 3.70492 10.4655C3.05575 9.56301 2.53325 8.66051 2.15325 7.76592C1.77325 6.86342 1.58325 6.00051 1.58325 5.17717C1.58325 4.63884 1.67825 4.12426 1.86825 3.64926C2.05825 3.16634 2.35909 2.72301 2.77867 2.32717C3.28534 1.82842 3.8395 1.58301 4.42534 1.58301C4.647 1.58301 4.86867 1.63051 5.06659 1.72551C5.27242 1.82051 5.4545 1.96301 5.597 2.16884L7.43367 4.75759C7.57617 4.95551 7.67909 5.13759 7.75034 5.31176C7.82159 5.47801 7.86117 5.64426 7.86117 5.79467C7.86117 5.98467 7.80575 6.17467 7.69492 6.35676C7.592 6.53884 7.44159 6.72884 7.25159 6.91884L6.64992 7.54426C6.56284 7.63134 6.52325 7.73426 6.52325 7.86092C6.52325 7.92426 6.53117 7.97967 6.547 8.04301C6.57075 8.10634 6.5945 8.15384 6.61034 8.20134C6.75284 8.46259 6.99825 8.80301 7.34659 9.21467C7.70284 9.62634 8.08284 10.0459 8.4945 10.4655C8.922 10.8851 9.33367 11.273 9.75325 11.6293C10.1649 11.9776 10.5053 12.2151 10.7745 12.3576C10.8141 12.3734 10.8616 12.3972 10.917 12.4209C10.9803 12.4447 11.0437 12.4526 11.1149 12.4526C11.2495 12.4526 11.3524 12.4051 11.4395 12.318L12.0412 11.7243C12.2391 11.5263 12.4291 11.3759 12.6112 11.2809C12.7933 11.1701 12.9753 11.1147 13.1733 11.1147C13.3237 11.1147 13.482 11.1463 13.6562 11.2176C13.8303 11.2888 14.0124 11.3918 14.2103 11.5263L16.8308 13.3868C17.0366 13.5293 17.1791 13.6955 17.2662 13.8934C17.3453 14.0913 17.3928 14.2893 17.3928 14.5109Z" stroke="#323D4F" stroke-opacity="0.61" stroke-width="1.5" stroke-miterlimit="10"/>
</svg>
